<svg xmlns="http://www.w3.org/2000/svg" xmlns:xlink="http://www.w3.org/1999/xlink" aria-hidden="true" role="img" class="iconify iconify--logos" width="31.88" height="32" preserveAspectRatio="xMidYMid meet" viewBox="0 0 256 257"><defs><linearGradient id="IconifyId1813088e1ce34df71bf9c00068c01a2d9" x1="-.008%" y1="47.892%" x2="72.189%" y2="50.096%" gradientUnits="userSpaceOnUse"><stop offset="0" stop-color="#41D1FF"></stop><stop offset="1" stop-color="#BD34FE"></stop></linearGradient><linearGradient id="IconifyId1813088e1ce34df71bf9c00068c01a2da" x1="43.649%" y1="2.989%" x2="131.331%" y2="91.475%" gradientUnits="userSpaceOnUse"><stop offset="0" stop-color="#FFBD4A"></stop><stop offset="1" stop-color="#FF980E"></stop></linearGradient></defs><path fill="url(#IconifyId1813088e1ce34df71bf9c00068c01a2d9)" d="M255.153 37.938L134.897 252.976c-2.483 4.44-8.862 4.466-11.382.048L.875 37.958c-2.746-4.814 1.371-10.646 6.827-9.67l120.385 21.517a6.537 6.537 0 0 0 2.322-.004l117.867-21.483c5.438-.991 9.574 4.796 6.877 9.62Z"></path><path fill="url(#IconifyId1813088e1ce34df71bf9c00068c01a2da)" d="M185.432.063L96.44 17.501a8.542 8.542 0 0 0-6.674 7.091L47.215 72.003a8.542 8.542 0 0 0 7.089 10.922l88.993-17.443c3.072-.600 4.922-3.889 4.334-6.857L185.432.063Zm1.145 14.951L119.419 33.365L67.704 91.292l59.873 28.628Z"></path></svg>